<svg width="19" height="25" viewBox="0 0 19 25" fill="none" xmlns="http://www.w3.org/2000/svg">
<path d="M18.5169 22.6493L18.1587 20.9776C17.4206 17.5332 16.0682 14.2964 14.1386 11.3529V8.64058C15.0275 7.97178 15.6035 6.9084 15.6035 5.71289V4.24805C15.6035 3.84355 15.2756 3.51562 14.8711 3.51562H14.1386V0.732422C14.1386 0.32793 13.8107 0 13.4062 0C13.0017 0 12.6738 0.32793 12.6738 0.732422V3.52339C11.3584 3.6001 10.2059 4.29209 9.49997 5.31528C8.79406 4.29209 7.64157 3.6001 6.32614 3.52339V0.732422C6.32614 0.32793 5.99821 0 5.59372 0C5.18922 0 4.86129 0.32793 4.86129 0.732422V3.51562H4.12887C3.72438 3.51562 3.39645 3.84355 3.39645 4.24805V5.71289C3.39645 6.9084 3.97243 7.97178 4.86129 8.64058V11.3529C2.9317 14.2964 1.57931 17.5332 0.841226 20.9776L0.483022 22.6493C0.40646 23.0066 0.605044 23.3658 0.948501 23.4909C3.69738 24.4923 6.57448 25 9.49997 25C12.4255 25 15.3026 24.4923 18.0514 23.4909C18.3949 23.3658 18.5935 23.0067 18.5169 22.6493ZM12.9179 4.98047H14.1386V5.71289C14.1386 6.92446 13.1529 7.91016 11.9414 7.91016H10.2324V7.66602C10.2324 6.1852 11.4371 4.98047 12.9179 4.98047ZM4.86129 4.98047H6.082C7.56281 4.98047 8.76755 6.1852 8.76755 7.66602V7.91016H7.05856C5.84699 7.91016 4.86129 6.92446 4.86129 5.71289V4.98047ZM7.05856 9.375H11.9414C12.1922 9.375 12.4371 9.34956 12.6738 9.30132V10.8398H6.32614V9.30132C6.56286 9.34956 6.80778 9.375 7.05856 9.375ZM9.49997 23.5352C6.95846 23.5352 4.45558 23.128 2.0507 22.3244L2.2735 21.2846C2.96115 18.0757 4.21051 15.0566 5.98898 12.3047L13.0109 12.3047C14.7894 15.0566 16.0387 18.0757 16.7264 21.2845L16.9492 22.3244C14.5444 23.128 12.0415 23.5352 9.49997 23.5352Z" fill="black"/>
</svg>
